{
	"asset":{
		"generator":"Khronos glTF Blender I/O v4.1.63",
		"version":"2.0"
	},
	"extensionsUsed":[
		"KHR_materials_specular"
	],
	"scene":0,
	"scenes":[
		{
			"name":"Scene",
			"nodes":[
				0
			]
		}
	],
	"nodes":[
		{
			"mesh":0,
			"name":"20240604_\ub354\ud50c\ub808\uc774\uc5b4\uc2a4\uace8\ud504\uc7a5GC_\uc804\uccb4\ucf54\uc2a4_M3E(\uad11\ud559R",
			"rotation":[
				0.7071068286895752,
				0,
				0,
				0.7071068286895752
			]
		}
	],
	"materials":[
		{
			"doubleSided":true,
			"extensions":{
				"KHR_materials_specular":{
					"specularFactor":0
				}
			},
			"name":"texture",
			"pbrMetallicRoughness":{
				"baseColorTexture":{
					"index":0
				},
				"metallicFactor":0
			}
		}
	],
	"meshes":[
		{
			"name":"20240604_\ub354\ud50c\ub808\uc774\uc5b4\uc2a4\uace8\ud504\uc7a5GC_\uc804\uccb4\ucf54\uc2a4_M3E(\uad11\ud559R",
			"primitives":[
				{
					"attributes":{
						"POSITION":0,
						"NORMAL":1,
						"TEXCOORD_0":2
					},
					"indices":3,
					"material":0
				}
			]
		}
	],
	"textures":[
		{
			"sampler":0,
			"source":0
		}
	],
	"images":[
		{
			"mimeType":"image/jpeg",
			"name":"20240604_\ub354\ud50c\ub808\uc774\uc5b4\uc2a4\uace8\ud504\uc7a5GC_\uc804\uccb4\ucf54\uc2a4_M3E(\uad11\ud559RGB)_texture",
			"uri":"20240604_%EB%8D%94%ED%94%8C%EB%A0%88%EC%9D%B4%EC%96%B4%EC%8A%A4%EA%B3%A8%ED%94%84%EC%9E%A5GC_%EC%A0%84%EC%B2%B4%EC%BD%94%EC%8A%A4_M3E%EA%B4%91%ED%95%99RGB_texture.jpg"
		}
	],
	"accessors":[
		{
			"bufferView":0,
			"componentType":5126,
			"count":2999876,
			"max":[
				1011.8300170898438,
				9.650309562683105,
				872.4710083007812
			],
			"min":[
				-780.5130004882812,
				-267.3760070800781,
				-963.3099975585938
			],
			"type":"VEC3"
		},
		{
			"bufferView":1,
			"componentType":5126,
			"count":2999876,
			"type":"VEC3"
		},
		{
			"bufferView":2,
			"componentType":5126,
			"count":2999876,
			"type":"VEC2"
		},
		{
			"bufferView":3,
			"componentType":5125,
			"count":3000000,
			"type":"SCALAR"
		}
	],
	"bufferViews":[
		{
			"buffer":0,
			"byteLength":35998512,
			"byteOffset":0,
			"target":34962
		},
		{
			"buffer":0,
			"byteLength":35998512,
			"byteOffset":35998512,
			"target":34962
		},
		{
			"buffer":0,
			"byteLength":23999008,
			"byteOffset":71997024,
			"target":34962
		},
		{
			"buffer":0,
			"byteLength":12000000,
			"byteOffset":95996032,
			"target":34963
		}
	],
	"samplers":[
		{
			"magFilter":9729,
			"minFilter":9987
		}
	],
	"buffers":[
		{
			"byteLength":107996032,
			"uri":"3dMesh.bin"
		}
	]
}
